<svg width="370" height="370" viewBox="0 0 370 370" fill="none" xmlns="http://www.w3.org/2000/svg">
<rect width="370" height="370" fill="black"/>
<path d="M161.533 286.2C95.5333 275.933 62.6594 305.418 53 317V277.555C68.8903 257.176 91.8642 247.301 101.365 244.91C162.804 229.725 191.486 212.759 200.339 176.53C216.461 110.561 237.8 82.3333 297.933 53H317V129.665C290.6 154.2 267.056 161.533 256.867 193.8C246.677 226.067 236.321 297.834 161.533 286.2Z" fill="#59FF88"/>
<path d="M105.8 202.6C70.6 217.421 62.6594 229.151 53 240.733V258.333V277.555C68.8903 257.176 91.8642 247.301 101.365 244.91C162.804 229.725 191.486 212.759 200.339 176.53C216.461 110.561 237.8 82.3333 297.933 53H274.467H229C204.067 61.8 192.564 84.3925 182.067 116.067C163 173.596 133.667 190.867 105.8 202.6Z" fill="#05902E"/>
</svg>
