<svg width="372" height="380" viewBox="0 0 372 380" fill="none" xmlns="http://www.w3.org/2000/svg">
<ellipse cx="182.318" cy="350.5" rx="122.5" ry="29.5" fill="url(#paint0_radial_142_80)"/>
<path fill-rule="evenodd" clip-rule="evenodd" d="M214.818 273.166C204.394 275.672 193.511 277 182.318 277C171.125 277 160.242 275.672 149.818 273.166V348.5C149.818 352.642 146.46 356 142.318 356C138.176 356 134.818 352.642 134.818 348.5V268.64C87.6912 251.435 52.5317 209.36 45.2228 158.299C30.9562 168.003 22.7921 183.513 18.5927 200.75C13.4861 221.711 14.5883 244.085 17.1926 258.133C17.9477 262.206 15.2582 266.119 11.1855 266.874C7.11272 267.629 3.19902 264.94 2.44397 260.867C-0.451726 245.248 -1.69945 220.672 4.01893 197.2C9.33349 175.385 20.9612 153.548 43.854 141.675C43.8302 140.619 43.8183 139.561 43.8183 138.5C43.8183 62.0086 105.827 0 182.318 0C254.728 0 314.159 55.5669 320.296 126.385C335.11 115.56 356.006 88.5766 356.318 35.4559C356.343 31.3138 359.72 27.9758 363.862 28.0001C368.004 28.0245 371.343 31.4021 371.318 35.5441C370.932 101.154 341.009 133.629 320.723 143.677C318.608 201.231 281.375 249.817 229.818 268.64V348.5C229.818 352.642 226.46 356 222.318 356C218.176 356 214.818 352.642 214.818 348.5V273.166Z" fill="url(#paint1_linear_142_80)"/>
<circle cx="121.318" cy="158.5" r="14.5" fill="#333333"/>
<circle cx="242.318" cy="158.5" r="14.5" fill="#333333"/>
<path d="M113.818 201.216C129.49 219.205 153.519 230.716 180.457 230.716C208.486 230.716 233.364 218.254 248.957 199" stroke="#333333" stroke-width="15" stroke-linecap="round"/>
<defs>
<radialGradient id="paint0_radial_142_80" cx="0" cy="0" r="1" gradientUnits="userSpaceOnUse" gradientTransform="translate(181.818 351) rotate(17.1456) scale(98.3717 46.8092)">
<stop stop-color="#989898"/>
<stop offset="1" stop-color="#BABABA"/>
</radialGradient>
<linearGradient id="paint1_linear_142_80" x1="83" y1="45.5" x2="285.5" y2="235.5" gradientUnits="userSpaceOnUse">
<stop stop-color="#F3119A"/>
<stop offset="1" stop-color="#AD2192"/>
</linearGradient>
</defs>
</svg>
