<?xml version="1.0" standalone="no"?>
<!DOCTYPE svg PUBLIC "-//W3C//DTD SVG 20010904//EN"
 "http://www.w3.org/TR/2001/REC-SVG-20010904/DTD/svg10.dtd">
<svg version="1.0" xmlns="http://www.w3.org/2000/svg"
 width="1910.000000pt" height="660.000000pt" viewBox="0 0 1910.000000 660.000000"
 preserveAspectRatio="xMidYMid meet">

<g transform="translate(0.000000,660.000000) scale(0.100000,-0.100000)"
fill="#000000" stroke="none">
<path d="M2587 6422 c-10 -10 -17 -28 -17 -39 0 -11 -20 -81 -45 -154 -25 -74
-54 -161 -65 -194 -11 -33 -20 -82 -20 -109 0 -32 -8 -64 -25 -95 -13 -25 -35
-84 -49 -131 -13 -47 -44 -130 -68 -185 -24 -55 -54 -134 -67 -175 -13 -41
-37 -104 -54 -140 -40 -88 -57 -138 -57 -166 0 -12 -16 -58 -36 -101 -19 -43
-41 -103 -49 -134 -7 -32 -27 -86 -44 -120 -18 -38 -35 -95 -42 -139 -6 -45
-24 -104 -44 -147 -19 -40 -42 -97 -51 -128 -15 -53 -28 -86 -75 -192 -11 -23
-19 -49 -19 -59 0 -9 -20 -55 -44 -103 -25 -47 -61 -122 -82 -166 -94 -205
-138 -289 -170 -325 -30 -33 -34 -43 -29 -72 5 -25 1 -40 -14 -60 -12 -14 -21
-30 -21 -35 0 -5 -16 -28 -36 -52 -26 -30 -49 -77 -79 -164 -64 -183 -68 -193
-101 -220 -40 -33 -106 -120 -134 -175 -13 -24 -39 -56 -59 -72 -20 -17 -44
-43 -54 -59 l-17 -29 35 -23 c41 -28 85 -90 85 -119 0 -55 116 -191 177 -206
64 -16 143 40 177 126 10 25 43 95 74 155 31 61 79 155 107 210 51 101 68 126
140 201 22 22 62 70 90 105 62 81 221 239 267 266 l35 20 -36 -69 c-28 -55
-36 -84 -39 -140 -4 -56 -11 -82 -36 -127 -42 -73 -43 -76 -67 -193 -20 -97
-20 -101 -3 -156 33 -104 102 -200 162 -224 60 -24 134 -50 187 -64 73 -20
106 -5 212 93 25 24 49 43 54 43 4 0 21 12 36 26 15 14 47 39 70 55 37 26 45
28 63 17 11 -7 27 -27 35 -44 19 -40 117 -132 146 -137 13 -3 63 -12 110 -21
48 -9 98 -16 113 -16 33 0 147 45 172 68 65 60 99 65 163 23 24 -16 61 -37 83
-47 36 -16 38 -20 32 -48 -3 -17 -26 -59 -50 -94 -24 -35 -44 -65 -44 -67 0
-3 -13 -34 -30 -70 -16 -36 -30 -70 -30 -75 0 -6 -4 -10 -9 -10 -5 0 -12 -8
-15 -18 -3 -9 -26 -39 -51 -66 -25 -27 -45 -54 -45 -60 0 -6 -16 -33 -35 -61
-20 -27 -51 -73 -70 -101 -19 -28 -44 -59 -55 -69 -11 -10 -20 -23 -20 -29 0
-9 -45 -57 -109 -116 -8 -8 -32 -32 -51 -52 -120 -127 -402 -408 -409 -408 -4
0 -19 -12 -32 -28 -41 -44 -53 -99 -46 -204 10 -138 11 -141 62 -135 34 5 48
1 86 -24 37 -25 50 -28 84 -23 22 4 57 15 77 25 21 11 41 19 47 19 12 0 115
69 119 81 2 5 10 9 17 9 8 0 39 25 70 55 31 30 60 55 64 55 4 0 15 14 25 31
10 18 27 40 36 49 10 10 37 51 61 91 23 41 51 82 61 93 10 11 21 29 24 40 4
12 25 44 48 71 23 28 55 68 71 90 16 22 33 43 38 46 5 4 19 22 31 41 93 152
159 228 198 228 19 0 68 48 68 66 0 7 6 17 13 21 16 10 161 211 170 236 4 9
25 44 47 77 22 32 40 63 40 69 0 8 26 38 101 119 12 13 38 31 58 41 73 36 186
94 201 103 8 4 34 18 56 29 l41 22 59 -60 c88 -89 106 -95 271 -91 l138 3 85
41 c47 23 96 44 110 47 45 11 240 181 240 209 0 9 83 106 140 163 22 22 40 45
40 51 0 7 10 18 23 27 44 29 87 156 87 259 0 61 -6 68 -64 68 l-52 0 -19 53
c-64 183 -115 229 -273 249 -231 28 -340 -14 -598 -234 -28 -23 -70 -70 -93
-103 -23 -33 -58 -78 -77 -99 -61 -68 -67 -88 -69 -229 -2 -121 -4 -129 -30
-167 -19 -27 -52 -54 -102 -81 -41 -23 -77 -39 -80 -36 -3 3 14 55 37 114 23
59 46 128 51 152 5 24 13 49 17 55 5 6 15 27 22 46 7 19 22 47 32 62 10 14 18
33 18 42 0 8 6 19 13 23 30 19 75 93 95 159 14 45 32 80 51 98 25 24 28 32 20
59 -5 18 -20 42 -34 55 -22 19 -37 22 -103 22 -42 0 -121 5 -175 12 -95 12
-100 11 -140 -10 -50 -26 -63 -27 -110 -7 -42 18 -298 22 -362 6 -22 -6 -59
-11 -83 -11 -70 0 -107 -22 -137 -79 -14 -28 -31 -74 -39 -103 -7 -29 -21 -71
-30 -92 -20 -48 -66 -219 -66 -246 0 -47 -96 -167 -152 -191 -16 -6 -28 -15
-28 -20 0 -5 -9 -9 -21 -9 -11 0 -29 -5 -40 -10 -18 -10 -19 -6 -19 106 0 114
1 118 39 205 22 49 43 110 46 136 4 27 14 75 22 107 17 68 15 70 -67 94 -78
22 -132 25 -203 8 -38 -9 -103 -16 -146 -16 l-79 0 -4 -103 c-3 -92 -6 -107
-33 -152 -17 -28 -35 -62 -42 -77 -7 -16 -16 -28 -22 -28 -5 0 -25 -24 -44
-52 -19 -29 -49 -66 -66 -82 l-31 -30 0 33 c0 18 20 73 45 124 25 51 45 96 45
100 0 4 14 38 31 75 46 100 54 119 83 212 32 105 32 118 1 160 -14 19 -25 42
-25 51 0 9 -13 28 -30 42 -53 45 -91 52 -285 52 -177 0 -181 0 -232 -27 -57
-30 -83 -35 -83 -15 0 6 16 50 36 97 19 47 40 99 46 115 6 17 28 66 48 110 21
44 41 91 44 105 9 32 50 130 83 198 15 31 38 60 55 70 47 27 110 137 148 257
7 22 28 73 46 113 19 41 34 78 34 83 0 5 20 52 45 105 25 52 45 101 45 109 0
7 14 46 31 86 111 267 120 294 129 379 5 47 16 116 24 155 10 44 16 119 16
200 0 71 4 156 10 189 7 44 6 73 -5 120 -18 76 -19 144 -1 221 31 136 30 141
-13 188 -57 62 -150 86 -184 49z m1268 -3459 c-4 -16 -13 -59 -21 -97 -8 -38
-20 -78 -25 -89 -21 -38 -82 -112 -120 -145 l-38 -33 6 38 c3 21 25 79 49 129
24 50 44 95 44 101 0 5 20 32 45 59 24 27 45 52 45 57 0 4 5 7 11 7 7 0 9 -10
4 -27z m1006 -60 c-24 -41 -49 -64 -96 -87 -27 -14 -50 -24 -52 -23 -1 2 12
20 30 40 55 63 144 116 118 70z m424 -126 c-8 -20 -19 -37 -23 -37 -4 0 -25
-17 -47 -38 -22 -20 -57 -49 -77 -62 -21 -14 -38 -30 -38 -36 0 -16 -101 -109
-140 -129 -19 -10 -37 -21 -40 -24 -14 -19 -58 -41 -81 -41 -35 0 -50 20 -57
75 -5 49 8 75 39 75 11 0 19 3 19 8 0 4 20 18 45 32 25 14 45 28 45 32 0 3 10
10 23 13 22 7 216 133 251 164 10 9 34 21 55 26 44 13 50 -1 26 -58z"/>
<path d="M9241 5280 c-39 -27 -52 -30 -120 -30 -85 0 -115 -12 -139 -54 -10
-15 -29 -42 -45 -58 -29 -32 -135 -191 -145 -218 -3 -8 -23 -41 -44 -72 -21
-32 -41 -66 -44 -75 -3 -10 -25 -58 -49 -108 -47 -97 -78 -193 -95 -293 -6
-35 -25 -116 -41 -180 -57 -218 -61 -237 -56 -287 7 -75 -10 -137 -56 -206
-23 -34 -52 -78 -64 -98 -12 -20 -26 -41 -30 -46 -5 -6 -22 -33 -38 -60 -16
-28 -45 -70 -64 -94 -20 -23 -45 -58 -56 -76 -11 -18 -55 -84 -97 -147 -43
-63 -78 -121 -78 -128 0 -12 -66 -120 -80 -130 -4 -3 -10 -14 -14 -26 -3 -11
-20 -36 -37 -55 -17 -19 -38 -47 -46 -64 -9 -16 -19 -32 -22 -35 -4 -3 -48
-54 -98 -115 -51 -60 -124 -139 -163 -174 -60 -54 -110 -125 -96 -138 7 -7
252 79 296 105 25 15 106 57 181 93 116 58 145 77 208 138 67 67 116 99 130
86 3 -4 -7 -55 -22 -114 -15 -59 -30 -137 -33 -172 -8 -84 11 -202 37 -225 30
-27 148 -74 202 -81 43 -5 51 -3 87 26 21 17 43 31 48 31 11 0 47 41 55 63 4
9 17 21 30 26 33 13 97 95 97 125 0 31 -11 33 -48 7 -47 -32 -166 -100 -195
-110 -47 -18 -74 -14 -80 12 -16 65 -17 128 -3 202 9 44 16 97 16 117 0 20 15
97 34 170 30 119 47 202 59 293 4 29 58 215 116 400 16 50 36 126 46 170 9 44
37 134 60 200 28 77 46 146 50 194 6 58 16 91 45 147 44 85 49 102 56 192 2
37 18 110 35 162 16 52 33 114 36 138 7 51 18 60 43 37 18 -17 18 -19 -6 -84
-14 -36 -28 -75 -31 -86 -3 -11 -19 -48 -34 -81 -16 -34 -29 -69 -29 -78 0
-30 45 9 89 77 43 67 131 241 150 297 6 19 20 49 31 65 l21 30 -6 -55 -6 -55
25 28 c14 15 26 36 26 46 0 9 4 21 9 27 5 5 26 63 46 129 21 66 45 136 53 155
9 19 18 61 20 93 l4 57 -43 0 c-32 0 -56 -8 -88 -30z"/>
<path d="M15797 4833 c-4 -3 -7 -16 -7 -29 0 -33 -10 -54 -26 -54 -8 0 -44 14
-81 30 -79 36 -88 37 -108 6 -27 -41 -34 -84 -26 -157 7 -69 -6 -192 -28 -263
-21 -67 -71 -317 -71 -356 0 -22 -9 -66 -21 -98 -11 -31 -23 -93 -25 -137 -3
-44 -14 -107 -23 -140 -10 -33 -23 -82 -30 -109 -16 -65 -81 -174 -131 -219
-22 -21 -42 -37 -45 -37 -5 0 -75 141 -75 152 0 4 -23 41 -52 83 -33 48 -60
78 -76 82 -66 16 -236 -26 -290 -73 l-37 -31 0 -119 c0 -116 -1 -121 -35 -188
-36 -71 -200 -256 -227 -256 -7 0 -13 -4 -13 -10 0 -13 -101 -80 -121 -80 -10
0 -55 -18 -102 -39 -77 -36 -215 -71 -276 -71 -28 0 -57 27 -66 60 -7 27 -6
28 90 104 28 22 73 60 101 85 27 25 74 64 104 86 58 43 190 174 190 189 0 4
14 24 31 44 27 31 31 41 26 78 -7 66 -28 89 -99 113 -100 33 -216 45 -306 32
-108 -16 -243 -68 -300 -114 -60 -50 -60 -50 -122 -192 l-53 -120 -1 -115 c0
-74 4 -123 12 -138 16 -29 10 -35 -88 -92 -41 -23 -82 -49 -91 -57 -30 -25
-181 -75 -193 -63 -7 7 -13 78 -16 173 -4 131 -8 168 -23 192 -10 17 -27 46
-38 65 -12 19 -31 45 -43 57 -12 12 -28 34 -36 50 -36 68 -100 93 -251 100
-104 5 -119 8 -124 24 -4 10 -20 32 -36 48 -53 54 -160 51 -273 -8 -42 -22
-52 -32 -58 -61 -4 -19 -21 -69 -38 -110 -18 -41 -41 -102 -52 -135 -19 -57
-43 -114 -74 -179 -8 -16 -14 -35 -14 -41 0 -26 -132 -124 -233 -174 -161 -81
-274 -91 -331 -32 -30 31 -44 97 -32 145 6 24 105 96 134 96 29 0 202 142 202
166 0 8 4 14 9 14 5 0 22 20 38 45 15 25 31 45 36 45 4 0 7 6 7 14 0 39 73
165 125 215 30 29 55 61 55 71 0 21 -24 43 -80 73 -106 55 -177 58 -325 12
-44 -14 -89 -25 -101 -25 -24 0 -126 -53 -144 -75 -7 -8 -18 -15 -25 -15 -11
0 -115 -99 -171 -163 -11 -13 -27 -28 -35 -33 -7 -5 -32 -28 -53 -52 -40 -42
-40 -42 -46 -147 l-7 -106 -69 -64 c-38 -35 -74 -64 -79 -65 -6 0 -26 -16 -45
-36 -43 -46 -49 -31 -16 35 14 28 26 55 26 60 0 5 15 35 33 68 18 32 39 74 46
93 8 19 29 67 47 105 48 99 51 125 21 160 l-24 29 -63 -18 c-66 -18 -212 -45
-243 -46 -16 0 -14 7 16 48 39 54 61 111 51 135 -7 18 -59 59 -89 71 -59 23
-224 56 -279 56 -57 0 -68 -4 -110 -35 -25 -20 -46 -40 -46 -44 0 -5 -16 -23
-36 -42 -19 -19 -48 -51 -62 -73 -55 -79 -80 -121 -81 -134 -1 -7 -10 -31 -21
-55 -41 -89 -62 -154 -71 -216 -10 -68 -34 -132 -65 -172 -64 -82 -200 -191
-278 -223 l-39 -16 7 65 c10 101 13 106 164 273 17 20 32 41 32 47 0 5 20 51
45 100 25 50 45 98 45 108 0 9 4 17 9 17 19 0 52 101 49 148 l-3 47 -53 9
c-42 7 -65 5 -109 -8 -30 -10 -57 -15 -60 -13 -2 3 0 22 6 44 6 21 11 68 11
105 l0 67 -77 17 c-72 16 -79 16 -132 -1 -31 -9 -75 -26 -98 -36 -23 -10 -49
-19 -57 -19 -16 0 -107 -40 -116 -51 -3 -4 -19 -15 -37 -26 -35 -21 -127 -108
-185 -175 -20 -24 -61 -70 -90 -104 -29 -33 -68 -78 -87 -100 -18 -21 -51 -75
-72 -118 -37 -75 -39 -85 -39 -171 0 -82 3 -96 25 -126 13 -19 29 -43 34 -55
12 -27 40 -46 170 -114 85 -44 125 -44 219 4 82 41 98 41 137 -6 28 -33 94
-87 133 -107 13 -7 60 -18 105 -25 107 -18 190 -5 267 41 30 18 74 41 96 52
23 11 45 24 48 30 4 6 27 23 52 37 l45 26 38 -26 c57 -40 65 -61 48 -126 -17
-63 -117 -258 -159 -310 -15 -19 -28 -40 -28 -47 0 -7 -6 -16 -13 -20 -16 -10
-47 -54 -82 -118 -16 -27 -41 -65 -56 -83 -16 -18 -29 -36 -29 -40 0 -4 -36
-38 -80 -77 -113 -98 -210 -198 -325 -333 -34 -40 -70 -69 -113 -92 -59 -30
-63 -35 -58 -59 4 -14 9 -69 12 -121 8 -160 20 -196 84 -262 84 -85 106 -86
250 -15 120 59 204 147 325 342 11 18 34 54 52 81 74 113 104 164 123 209 11
25 36 70 55 99 19 29 35 58 35 64 0 6 6 17 13 24 18 18 177 254 177 263 0 11
63 99 77 108 7 4 13 14 13 21 0 8 35 44 78 81 42 36 104 92 137 124 33 32 87
79 120 105 33 26 76 63 95 81 19 18 55 51 79 74 25 23 52 46 61 51 10 5 36 25
59 44 23 19 61 45 86 57 l44 22 23 -29 c42 -52 132 -134 173 -158 65 -38 167
-51 277 -37 111 15 123 19 256 84 106 52 143 85 175 157 9 19 24 45 34 58 l19
23 37 -56 c20 -32 37 -61 37 -66 0 -5 7 -9 17 -9 9 0 35 -11 57 -24 23 -13 55
-27 73 -31 29 -6 33 -4 39 22 4 15 10 33 14 38 10 14 27 63 59 176 28 95 46
133 84 176 11 12 25 32 31 44 6 13 33 38 59 57 68 49 91 40 125 -48 22 -60 24
-74 18 -175 -7 -116 7 -197 39 -229 8 -8 15 -17 15 -21 0 -15 54 -75 67 -75 7
0 16 -6 19 -14 9 -25 99 -56 159 -56 58 0 101 16 136 51 10 10 25 19 32 19 7
0 22 9 34 19 25 23 179 126 246 164 45 26 51 27 66 13 10 -9 23 -16 29 -16 6
0 16 -8 21 -18 6 -11 38 -32 73 -47 59 -27 72 -28 198 -29 116 0 145 3 205 23
116 39 180 76 229 133 25 29 69 71 98 93 94 72 153 140 221 253 37 61 67 116
67 121 0 6 16 22 36 38 l36 27 29 -34 c34 -40 34 -40 -4 -205 -18 -81 -34
-127 -63 -174 -31 -52 -39 -76 -42 -127 -5 -76 8 -118 64 -205 52 -82 78 -107
120 -115 30 -6 94 17 94 34 0 4 17 18 38 32 20 13 44 31 53 40 8 8 31 29 50
46 19 17 39 39 46 50 58 91 76 131 87 196 12 73 12 73 20 33 4 -22 18 -57 32
-77 13 -21 24 -40 24 -44 0 -10 122 -127 158 -152 35 -24 97 -41 147 -42 45 0
142 54 245 136 64 51 170 168 170 188 0 3 -20 6 -45 6 -25 0 -45 3 -45 6 0 11
44 84 50 84 4 0 17 22 29 48 22 46 22 51 8 93 -9 28 -13 63 -10 97 4 32 2 52
-5 52 -13 0 -72 -61 -72 -74 0 -6 -21 -31 -45 -55 -25 -25 -45 -48 -45 -52 0
-24 -212 -199 -241 -199 -5 0 -9 25 -9 55 0 52 34 173 67 234 7 15 13 35 13
46 0 11 20 83 44 160 24 77 51 172 60 210 24 100 66 177 102 187 57 16 212 37
409 58 307 31 355 38 420 60 33 12 107 25 165 31 57 5 106 12 108 14 2 2 5 18
5 35 2 25 -4 34 -33 49 -43 23 -118 41 -168 41 -21 0 -87 9 -147 20 -138 25
-326 27 -532 3 -84 -9 -156 -14 -159 -10 -9 9 20 109 56 198 17 39 30 80 30
89 0 10 16 44 35 76 19 33 40 70 46 84 6 14 15 32 20 40 82 141 79 134 79 212
0 73 -1 76 -26 82 -14 4 -46 4 -71 0 -36 -5 -55 -2 -94 17 l-49 23 -30 -22
c-36 -27 -65 -28 -132 -2 -59 22 -62 23 -71 13z m-6285 -1517 c-3 -28 -11 -37
-44 -52 -22 -10 -44 -27 -49 -38 -5 -12 -20 -35 -32 -52 -12 -16 -30 -55 -39
-85 -9 -30 -27 -83 -38 -119 -12 -36 -34 -106 -49 -157 -29 -99 -42 -119 -93
-144 -36 -18 -168 -52 -174 -46 -7 7 86 181 120 224 34 41 39 60 62 220 5 37
63 110 102 130 15 8 43 30 62 49 20 19 40 34 46 34 6 0 21 11 34 25 20 21 56
38 90 44 4 1 4 -14 2 -33z m4398 -133 c0 -10 -52 -77 -67 -86 -7 -4 -13 -14
-13 -22 0 -18 -94 -98 -99 -84 -2 6 2 30 9 53 9 33 23 52 63 82 76 58 107 74
107 57z m1426 -49 c-6 -15 -25 -134 -26 -156 0 -22 -28 -4 -43 27 -21 45 -21
74 1 101 32 38 79 57 68 28z m-4870 -151 c-10 -42 -44 -128 -88 -220 -21 -45
-41 -95 -44 -112 -8 -39 -32 -60 -96 -82 -64 -21 -68 -18 -68 72 0 80 33 151
104 227 24 26 52 57 63 70 28 34 85 71 112 72 20 0 22 -3 17 -27z"/>
<path d="M16731 3640 c-24 -5 -76 -28 -115 -51 -39 -24 -85 -51 -102 -61 -30
-17 -95 -89 -139 -154 -11 -16 -40 -49 -65 -74 -67 -67 -94 -108 -120 -181
l-23 -66 33 -89 c48 -131 69 -176 99 -207 14 -16 38 -49 52 -75 33 -61 60 -78
216 -139 176 -70 211 -76 458 -71 201 4 213 6 280 32 93 37 169 56 228 56 36
0 70 11 140 45 51 25 98 45 104 45 21 0 119 45 160 73 23 16 46 42 52 58 5 15
22 35 38 45 51 32 73 57 79 91 4 19 4 37 0 40 -3 3 -25 -4 -48 -15 -145 -72
-202 -94 -313 -120 -22 -6 -85 -24 -140 -41 -84 -26 -110 -30 -165 -25 -53 5
-79 2 -145 -20 -117 -37 -331 -62 -404 -47 -90 20 -92 21 -89 44 2 17 27 30
125 68 136 51 199 96 290 203 38 44 113 198 113 231 0 12 -10 44 -22 71 -14
32 -24 81 -29 143 -4 61 -12 96 -20 102 -8 4 -43 16 -79 25 -36 9 -101 27
-145 41 -89 28 -231 38 -304 23z"/>
</g>
</svg>
